# xmcd CD database file generated by OrangeCD 6.4
#
# Track frame offsets:
#	150
#	15212
#	35915
#	54222
#	73747
#	88847
#	98152
#	110497
#	121810
#	132850
#	143145
#	152735
#	162562
#	172477
#
# Disc length: 2524 seconds
#
# Revision: 1
# Processed by: cddbd v1.5.2PL0 Copyright (c) Steve Scherf et al.
# Submitted via: OrangeCD 6.4
#
DISCID=c109da0e
DTITLE=Johnny Winter - The Masters
DYEAR=1998
DGENRE=Blues
TTITLE0=Rock 'n' Roll Hoochie Koo
TTITLE1=Raised On Rock
TTITLE2=Prodigal Son
TTITLE3=No Time To Live
TTITLE4=On The Limb
TTITLE5=Road Runner
TTITLE6=Leave My Woman Alone
TTITLE7=Can't Believe You Wanna Leave
TTITLE8=Oh My Darling
TTITLE9=Shed So Many Tears
TTITLE10=By The Light Of The Silvery Moon
TTITLE11=Out Of Sight
TTITLE12=Hey Hey Hey
TTITLE13=Be Careful With A Fool
EXTD=
EXTT0=
EXTT1=
EXTT2=
EXTT3=
EXTT4=
EXTT5=
EXTT6=
EXTT7=
EXTT8=
EXTT9=
EXTT10=
EXTT11=
EXTT12=
EXTT13=
PLAYORDER=
